<!-- Generator: Adobe Illustrator 22.0.1, SVG Export Plug-In  -->
<svg version="1.1"
	 xmlns="http://www.w3.org/2000/svg" xmlns:xlink="http://www.w3.org/1999/xlink" xmlns:a="http://ns.adobe.com/AdobeSVGViewerExtensions/3.0/"
	 x="0px" y="0px" width="79.4px" height="26.6px" viewBox="0 0 79.4 26.6" style="enable-background:new 0 0 79.4 26.6;"
	 xml:space="preserve">
<style type="text/css">
	.st0{fill:#181716;}
	.st1{fill:#6F6F6E;}
</style>
<defs>
</defs>
<path class="st0" d="M16.2,12.9C16.1,13,16,13,15.9,13h-2.1c-0.1,0-0.2,0-0.3-0.1c-0.1-0.1-0.1-0.2-0.1-0.3V4.8c0-0.4,0-0.8-0.1-1.1
	c-0.1-0.3-0.1-0.5-0.3-0.7c-0.1-0.2-0.3-0.3-0.5-0.4c-0.2-0.1-0.5-0.1-0.8-0.1c-0.2,0-0.5,0-0.9,0.1C10.4,2.8,10,3,9.6,3.2
	c0,0.3,0.1,0.5,0.1,0.8c0,0.3,0,0.6,0,0.8v7.7c0,0.1,0,0.2-0.1,0.3C9.5,13,9.4,13,9.2,13H7.1c-0.1,0-0.2,0-0.3-0.1
	c-0.1-0.1-0.1-0.2-0.1-0.3V4.8c0-0.4,0-0.8-0.1-1.1c0-0.3-0.1-0.5-0.2-0.7C6.3,2.9,6.1,2.8,5.9,2.7C5.7,2.6,5.4,2.6,5.1,2.6
	C4.6,2.6,3.9,2.8,3,3.4v9.2c0,0.1,0,0.2-0.1,0.3C2.8,13,2.7,13,2.6,13H0.5c-0.1,0-0.2,0-0.3-0.1C0,12.8,0,12.7,0,12.5V0.6
	c0-0.1,0-0.2,0.1-0.3s0.2-0.1,0.3-0.1h2c0.1,0,0.2,0,0.3,0.1c0.1,0.1,0.1,0.2,0.1,0.3v0.5c0.5-0.3,1-0.6,1.5-0.8
	C4.9,0.1,5.5,0,6.2,0c0.7,0,1.2,0.1,1.6,0.3c0.4,0.2,0.8,0.4,1,0.8c0.6-0.3,1.2-0.6,1.7-0.8c0.6-0.2,1.3-0.3,2-0.3
	c0.8,0,1.4,0.1,1.9,0.4c0.5,0.3,0.9,0.6,1.2,1c0.3,0.4,0.5,0.9,0.6,1.5c0.1,0.6,0.2,1.2,0.2,1.9v7.8C16.4,12.7,16.3,12.8,16.2,12.9z
	"/>
<path class="st0" d="M35.6,12.9C35.5,13,35.4,13,35.3,13h-2.1c-0.1,0-0.2,0-0.3-0.1c-0.1-0.1-0.1-0.2-0.1-0.3V4.8
	c0-0.4,0-0.8-0.1-1.1c-0.1-0.3-0.1-0.5-0.3-0.7c-0.1-0.2-0.3-0.3-0.5-0.4c-0.2-0.1-0.5-0.1-0.8-0.1c-0.2,0-0.5,0-0.9,0.1
	c-0.4,0.1-0.8,0.2-1.2,0.4C29,3.4,29,3.7,29,4c0,0.3,0,0.6,0,0.8v7.7c0,0.1,0,0.2-0.1,0.3C28.8,13,28.7,13,28.6,13h-2.1
	c-0.1,0-0.2,0-0.3-0.1c-0.1-0.1-0.1-0.2-0.1-0.3V4.8c0-0.4,0-0.8-0.1-1.1c0-0.3-0.1-0.5-0.2-0.7c-0.1-0.2-0.3-0.3-0.5-0.4
	c-0.2-0.1-0.5-0.1-0.8-0.1c-0.5,0-1.2,0.3-2.1,0.8v9.2c0,0.1,0,0.2-0.1,0.3C22.1,13,22,13,21.9,13h-2.1c-0.1,0-0.2,0-0.3-0.1
	c-0.1-0.1-0.1-0.2-0.1-0.3V0.6c0-0.1,0-0.2,0.1-0.3c0.1-0.1,0.2-0.1,0.3-0.1h2c0.1,0,0.2,0,0.3,0.1c0.1,0.1,0.1,0.2,0.1,0.3v0.5
	c0.5-0.3,1-0.6,1.5-0.8C24.2,0.1,24.8,0,25.5,0c0.7,0,1.2,0.1,1.6,0.3c0.4,0.2,0.8,0.4,1,0.8c0.6-0.3,1.2-0.6,1.7-0.8
	c0.6-0.2,1.3-0.3,2-0.3c0.8,0,1.4,0.1,1.9,0.4c0.5,0.3,0.9,0.6,1.2,1c0.3,0.4,0.5,0.9,0.6,1.5c0.1,0.6,0.2,1.2,0.2,1.9v7.8
	C35.7,12.7,35.7,12.8,35.6,12.9z"/>
<path class="st0" d="M47.3,9.7c0,0.5-0.1,1-0.3,1.4c-0.2,0.4-0.5,0.8-0.8,1.1c-0.4,0.3-0.8,0.6-1.4,0.8c-0.6,0.2-1.2,0.3-2,0.3
	c-0.2,0-0.5,0-0.8,0c-0.3,0-0.7,0-1.1-0.1c-0.4,0-0.8-0.1-1.1-0.1c-0.4-0.1-0.7-0.1-1-0.2c-0.3-0.1-0.4-0.3-0.4-0.5v-1.4
	c0-0.1,0-0.2,0.1-0.3c0.1-0.1,0.2-0.1,0.3-0.1h0.1c0.3,0,0.6,0.1,1,0.1c0.4,0,0.7,0.1,1.1,0.1c0.4,0,0.7,0,1,0.1c0.3,0,0.6,0,0.7,0
	c0.3,0,0.6,0,0.8-0.1c0.2-0.1,0.4-0.1,0.5-0.2c0.1-0.1,0.2-0.2,0.2-0.4c0-0.1,0.1-0.3,0.1-0.4c0-0.2-0.1-0.4-0.2-0.6
	c-0.2-0.2-0.4-0.4-0.8-0.6l-3.1-1.9c-0.6-0.3-1-0.8-1.4-1.3c-0.4-0.5-0.5-1.1-0.5-1.8c0-2.3,1.4-3.4,4.3-3.4c0.5,0,0.9,0,1.2,0
	c0.4,0,0.7,0.1,1,0.1c0.3,0,0.6,0.1,0.9,0.1c0.3,0.1,0.6,0.1,0.9,0.2C46.9,0.5,47,0.7,47,1v1.3c0,0.3-0.1,0.4-0.4,0.4h-0.1
	c-0.2,0-0.4,0-0.7-0.1c-0.3,0-0.6-0.1-1-0.1c-0.3,0-0.7,0-1.1-0.1c-0.4,0-0.7,0-1,0c-0.5,0-0.9,0.1-1.2,0.2
	c-0.3,0.1-0.4,0.4-0.4,0.7c0,0.2,0.1,0.3,0.2,0.5c0.2,0.1,0.4,0.3,0.7,0.5l3,1.8c0.5,0.3,0.9,0.6,1.1,0.9c0.3,0.3,0.5,0.6,0.7,0.9
	c0.2,0.3,0.3,0.6,0.3,0.9C47.3,9.1,47.3,9.4,47.3,9.7z"/>
<g>
	<path class="st1" d="M19.2,24.2c0,0.4-0.1,0.8-0.2,1.1c-0.2,0.3-0.4,0.6-0.6,0.8c-0.3,0.2-0.6,0.3-1,0.4c-0.4,0.1-0.8,0.1-1.3,0.1
		c-0.2,0-0.3,0-0.6,0c-0.2,0-0.4,0-0.7,0c-0.2,0-0.5,0-0.7-0.1c-0.2,0-0.5-0.1-0.7-0.1C13.1,26.3,13,26.2,13,26v-0.6
		c0-0.1,0-0.1,0.1-0.2c0.1,0,0.1-0.1,0.2-0.1h0.1c0.2,0,0.4,0,0.7,0.1c0.2,0,0.5,0,0.7,0.1c0.2,0,0.5,0,0.7,0c0.2,0,0.4,0,0.6,0
		c0.6,0,1-0.1,1.2-0.3c0.3-0.2,0.4-0.5,0.4-0.9c0-0.3-0.1-0.5-0.3-0.7c-0.2-0.2-0.5-0.4-1-0.7l-1.7-1c-0.5-0.3-0.9-0.7-1.2-1
		c-0.3-0.4-0.5-0.8-0.5-1.4c0-0.4,0.1-0.8,0.2-1.1c0.2-0.3,0.4-0.5,0.6-0.7c0.3-0.2,0.6-0.3,1-0.4c0.4-0.1,0.8-0.1,1.2-0.1
		c0.5,0,0.9,0,1.4,0.1c0.4,0,0.9,0.1,1.3,0.2c0.2,0,0.3,0.1,0.3,0.3v0.6c0,0.2-0.1,0.3-0.3,0.3h-0.1c-0.3,0-0.7-0.1-1.2-0.1
		c-0.5,0-1-0.1-1.4-0.1c-0.5,0-0.9,0.1-1.1,0.2c-0.3,0.1-0.4,0.4-0.4,0.8c0,0.3,0.1,0.5,0.3,0.7c0.2,0.2,0.5,0.4,0.9,0.6l1.7,1
		c0.7,0.4,1.2,0.8,1.4,1.2C19,23.2,19.2,23.7,19.2,24.2z"/>
	<path class="st1" d="M28.4,22.5c0,0.6-0.1,1.2-0.2,1.7c-0.2,0.5-0.4,0.9-0.7,1.3c-0.3,0.4-0.7,0.6-1.2,0.8c-0.5,0.2-1,0.3-1.6,0.3
		c-0.6,0-1.2-0.1-1.6-0.3c-0.5-0.2-0.9-0.5-1.2-0.8c-0.3-0.4-0.6-0.8-0.7-1.3c-0.2-0.5-0.2-1.1-0.2-1.7v-1.3c0-0.6,0.1-1.2,0.2-1.7
		c0.2-0.5,0.4-0.9,0.7-1.3c0.3-0.4,0.7-0.6,1.2-0.8c0.5-0.2,1-0.3,1.6-0.3c0.6,0,1.2,0.1,1.6,0.3c0.5,0.2,0.9,0.5,1.2,0.8
		c0.3,0.4,0.6,0.8,0.7,1.3c0.2,0.5,0.2,1.1,0.2,1.7V22.5z M26.9,21.2c0-0.9-0.2-1.5-0.5-2.1c-0.4-0.5-0.9-0.8-1.7-0.8
		c-0.8,0-1.4,0.3-1.7,0.7c-0.4,0.5-0.5,1.2-0.5,2.1v1.3c0,0.9,0.2,1.5,0.5,2.1c0.4,0.5,0.9,0.8,1.7,0.8c0.8,0,1.4-0.2,1.7-0.7
		c0.4-0.5,0.5-1.2,0.5-2.1V21.2z"/>
	<path class="st1" d="M31.9,26.4c-0.1,0.1-0.1,0.1-0.2,0.1h-0.9c-0.1,0-0.2,0-0.2-0.1c-0.1-0.1-0.1-0.1-0.1-0.2V15.5
		c0-0.1,0-0.2,0.1-0.2c0.1-0.1,0.1-0.1,0.2-0.1h0.9c0.1,0,0.2,0,0.2,0.1c0.1,0.1,0.1,0.1,0.1,0.2v10.6C32,26.2,32,26.3,31.9,26.4z"
		/>
	<path class="st1" d="M41.5,26.4c-0.1,0.1-0.1,0.1-0.2,0.1h-0.8c-0.1,0-0.2,0-0.2-0.1c-0.1-0.1-0.1-0.1-0.1-0.2v-0.3
		c-0.5,0.3-0.9,0.5-1.3,0.6c-0.4,0.1-0.9,0.2-1.4,0.2c-1,0-1.8-0.3-2.2-0.9c-0.5-0.6-0.7-1.5-0.7-2.6v-5.5c0-0.1,0-0.2,0.1-0.2
		c0.1-0.1,0.1-0.1,0.2-0.1h0.8c0.1,0,0.2,0,0.2,0.1c0.1,0.1,0.1,0.1,0.1,0.2v5.5c0,0.4,0,0.8,0.1,1.1c0.1,0.3,0.2,0.5,0.3,0.7
		c0.2,0.2,0.3,0.3,0.6,0.4c0.2,0.1,0.5,0.1,0.8,0.1c0.4,0,0.7-0.1,1.1-0.2c0.4-0.1,0.8-0.3,1.2-0.5v-7.1c0-0.1,0-0.2,0.1-0.2
		c0.1-0.1,0.1-0.1,0.2-0.1h0.8c0.1,0,0.2,0,0.2,0.1c0.1,0.1,0.1,0.1,0.1,0.2v8.6C41.5,26.2,41.5,26.3,41.5,26.4z"/>
	<path class="st1" d="M48.5,26.5c-0.2,0-0.4,0-0.6,0.1c-0.2,0-0.4,0-0.5,0c-0.4,0-0.7,0-1-0.1c-0.3-0.1-0.5-0.2-0.7-0.3
		c-0.2-0.2-0.3-0.4-0.4-0.7c-0.1-0.3-0.1-0.7-0.1-1.1v-5.9l-1.6-0.2c-0.2,0-0.3-0.1-0.3-0.3v-0.5c0-0.2,0.1-0.3,0.3-0.3h1.6v-1.7
		c0-0.2,0.1-0.3,0.3-0.3l0.9-0.1h0.1c0.1,0,0.1,0,0.2,0.1c0.1,0.1,0.1,0.1,0.1,0.2v1.8h1.8c0.1,0,0.2,0,0.2,0.1
		c0.1,0.1,0.1,0.1,0.1,0.2v0.6c0,0.1,0,0.2-0.1,0.2c-0.1,0.1-0.1,0.1-0.2,0.1h-1.8v5.9c0,0.5,0.1,0.8,0.2,0.9
		c0.1,0.1,0.4,0.2,0.7,0.2h0.9c0.2,0,0.4,0.1,0.4,0.2v0.6C48.8,26.4,48.7,26.5,48.5,26.5z"/>
	<path class="st1" d="M52.5,12.8c0,0.1,0,0.2-0.1,0.2c-0.1,0.1-0.1,0.1-0.2,0.1h-0.9c-0.1,0-0.2,0-0.2-0.1C51,12.9,51,12.9,51,12.8
		v-1.3c0-0.1,0-0.2,0.1-0.2c0.1-0.1,0.1-0.1,0.2-0.1h0.9c0.1,0,0.2,0,0.2,0.1c0.1,0.1,0.1,0.1,0.1,0.2V12.8z M52.5,26.2
		c0,0.1,0,0.2-0.1,0.2c-0.1,0.1-0.1,0.1-0.2,0.1h-0.8c-0.1,0-0.2,0-0.2-0.1C51,26.3,51,26.2,51,26.2v-8.6c0-0.1,0-0.2,0.1-0.2
		c0.1-0.1,0.1-0.1,0.2-0.1h0.8c0.1,0,0.2,0,0.2,0.1c0.1,0.1,0.1,0.1,0.1,0.2V26.2z"/>
	<path class="st1" d="M62.1,22.5c0,0.6-0.1,1.2-0.2,1.7c-0.2,0.5-0.4,0.9-0.7,1.3c-0.3,0.4-0.7,0.6-1.2,0.8c-0.5,0.2-1,0.3-1.6,0.3
		c-0.6,0-1.2-0.1-1.6-0.3c-0.5-0.2-0.9-0.5-1.2-0.8c-0.3-0.4-0.6-0.8-0.7-1.3c-0.2-0.5-0.2-1.1-0.2-1.7v-1.3c0-0.6,0.1-1.2,0.2-1.7
		c0.2-0.5,0.4-0.9,0.7-1.3c0.3-0.4,0.7-0.6,1.2-0.8c0.5-0.2,1-0.3,1.6-0.3c0.6,0,1.2,0.1,1.6,0.3c0.5,0.2,0.9,0.5,1.2,0.8
		c0.3,0.4,0.6,0.8,0.7,1.3c0.2,0.5,0.2,1.1,0.2,1.7V22.5z M60.7,21.2c0-0.9-0.2-1.5-0.5-2.1c-0.4-0.5-0.9-0.8-1.7-0.8
		c-0.8,0-1.4,0.3-1.7,0.7c-0.4,0.5-0.5,1.2-0.5,2.1v1.3c0,0.9,0.2,1.5,0.5,2.1c0.4,0.5,0.9,0.8,1.7,0.8c0.8,0,1.4-0.2,1.7-0.7
		c0.4-0.5,0.5-1.2,0.5-2.1V21.2z"/>
	<path class="st1" d="M71.1,26.4c-0.1,0.1-0.1,0.1-0.2,0.1h-0.8c-0.1,0-0.2,0-0.2-0.1c-0.1-0.1-0.1-0.1-0.1-0.2v-5.5
		c0-0.4,0-0.8-0.1-1.1c-0.1-0.3-0.2-0.5-0.3-0.7c-0.2-0.2-0.3-0.3-0.6-0.4c-0.2-0.1-0.5-0.1-0.8-0.1c-0.4,0-0.7,0.1-1.1,0.2
		c-0.4,0.1-0.8,0.3-1.2,0.5v7.1c0,0.1,0,0.2-0.1,0.2c-0.1,0.1-0.1,0.1-0.2,0.1h-0.8c-0.1,0-0.2,0-0.2-0.1c-0.1-0.1-0.1-0.1-0.1-0.2
		v-8.6c0-0.1,0-0.2,0.1-0.2c0.1-0.1,0.1-0.1,0.2-0.1h0.8c0.1,0,0.2,0,0.2,0.1c0.1,0.1,0.1,0.1,0.1,0.2v0.3c0.5-0.3,0.9-0.5,1.3-0.6
		c0.4-0.1,0.9-0.2,1.4-0.2c1,0,1.8,0.3,2.2,0.9c0.5,0.6,0.7,1.5,0.7,2.6v5.5C71.2,26.2,71.2,26.3,71.1,26.4z"/>
	<path class="st1" d="M79.4,24.2c0,0.4-0.1,0.8-0.2,1.1c-0.2,0.3-0.4,0.6-0.6,0.8c-0.3,0.2-0.6,0.3-1,0.4c-0.4,0.1-0.8,0.1-1.3,0.1
		c-0.2,0-0.3,0-0.6,0c-0.2,0-0.4,0-0.7,0c-0.2,0-0.5,0-0.7-0.1c-0.2,0-0.5-0.1-0.7-0.1c-0.2-0.1-0.4-0.2-0.4-0.3v-0.6
		c0-0.1,0-0.1,0.1-0.2c0.1,0,0.1-0.1,0.2-0.1h0.1c0.2,0,0.4,0,0.7,0.1c0.2,0,0.5,0,0.7,0.1c0.2,0,0.5,0,0.7,0c0.2,0,0.4,0,0.6,0
		c0.6,0,1-0.1,1.2-0.3c0.3-0.2,0.4-0.5,0.4-0.9c0-0.3-0.1-0.5-0.3-0.7c-0.2-0.2-0.5-0.4-1-0.7l-1.7-1c-0.5-0.3-0.9-0.7-1.2-1
		c-0.3-0.4-0.5-0.8-0.5-1.4c0-0.4,0.1-0.8,0.2-1.1c0.2-0.3,0.4-0.5,0.6-0.7c0.3-0.2,0.6-0.3,1-0.4c0.4-0.1,0.8-0.1,1.2-0.1
		c0.5,0,0.9,0,1.4,0.1c0.4,0,0.9,0.1,1.3,0.2c0.2,0,0.3,0.1,0.3,0.3v0.6c0,0.2-0.1,0.3-0.3,0.3h-0.1c-0.3,0-0.7-0.1-1.2-0.1
		c-0.5,0-1-0.1-1.4-0.1c-0.5,0-0.9,0.1-1.1,0.2c-0.3,0.1-0.4,0.4-0.4,0.8c0,0.3,0.1,0.5,0.3,0.7c0.2,0.2,0.5,0.4,0.9,0.6l1.7,1
		c0.7,0.4,1.2,0.8,1.4,1.2C79.2,23.2,79.4,23.7,79.4,24.2z"/>
</g>
</svg>
